<svg preserveAspectRatio="none" width="100%" height="100%" overflow="visible" style="display: block;" viewBox="0 0 16 20" fill="none" xmlns="http://www.w3.org/2000/svg">
<path id="Vector" fill-rule="evenodd" clip-rule="evenodd" d="M16 2C16 0.895431 15.1046 0 14 0H2C0.895431 0 0 0.895431 0 2V18C0 19.1046 0.895431 20 2 20H14C15.1046 20 16 19.1046 16 18V2ZM14.5 18C14.5 18.2761 14.2761 18.5 14 18.5H2C1.72386 18.5 1.5 18.2761 1.5 18V2C1.5 1.72386 1.72386 1.5 2 1.5H14C14.2761 1.5 14.5 1.72386 14.5 2V18ZM11.75 5C11.75 4.58579 11.4142 4.25 11 4.25H5C4.58579 4.25 4.25 4.58579 4.25 5C4.25 5.41421 4.58579 5.75 5 5.75H11C11.4142 5.75 11.75 5.41421 11.75 5ZM11.75 9C11.75 8.58579 11.4142 8.25 11 8.25H5C4.58579 8.25 4.25 8.58579 4.25 9C4.25 9.41421 4.58579 9.75 5 9.75H11C11.4142 9.75 11.75 9.41421 11.75 9ZM4.25 13C4.25 12.5858 4.58579 12.25 5 12.25H9C9.41421 12.25 9.75 12.5858 9.75 13C9.75 13.4142 9.41421 13.75 9 13.75H5C4.58579 13.75 4.25 13.4142 4.25 13Z" fill="var(--fill-0, #363738)"/>
</svg>
