<svg preserveAspectRatio="none" width="100%" height="100%" overflow="visible" style="display: block;" viewBox="0 0 20 16" fill="none" xmlns="http://www.w3.org/2000/svg">
<path id="Vector" fill-rule="evenodd" clip-rule="evenodd" d="M2 0C0.895431 0 0 0.895431 0 2V14C0 15.1046 0.895431 16 2 16H18C19.1046 16 20 15.1046 20 14V5.91421C20 5.649 19.8946 5.39464 19.7071 5.20711L14.7929 0.292893C14.6054 0.105357 14.351 0 14.0858 0H2ZM13.9268 1.92678C13.7693 1.76929 13.5 1.88083 13.5 2.10355V5.5C13.5 6.05228 13.9477 6.5 14.5 6.5H17.8964C18.1192 6.5 18.2307 6.23072 18.0732 6.07322L13.9268 1.92678Z" fill="var(--fill-0, #363738)"/>
</svg>
