<svg preserveAspectRatio="none" width="100%" height="100%" overflow="visible" style="display: block;" viewBox="0 0 16 20" fill="none" xmlns="http://www.w3.org/2000/svg">
<g id="Vector">
<path d="M5 11C5.55228 11 6 11.4527 6 12.005C6 12.5573 5.55228 13.01 5 13.01C4.44772 13.01 4 12.5573 4 12.005C4 11.4527 4.44772 11 5 11Z" fill="var(--fill-0, #363738)"/>
<path d="M8 11C8.55229 11 9 11.4527 9 12.005C9 12.5573 8.55229 13.01 8 13.01C7.44772 13.01 7 12.5573 7 12.005C7 11.4527 7.44772 11 8 11Z" fill="var(--fill-0, #363738)"/>
<path d="M11 13.01C11.5523 13.01 12 12.5573 12 12.005C12 11.4527 11.5523 11 11 11C10.4477 11 10 11.4527 10 12.005C10 12.5573 10.4477 13.01 11 13.01Z" fill="var(--fill-0, #363738)"/>
<path fill-rule="evenodd" clip-rule="evenodd" d="M2 20C0.895431 20 0 19.1046 0 18V2C0 0.895431 0.895431 0 2 0H10.0858C10.351 0 10.6054 0.105357 10.7929 0.292893L15.7071 5.20711C15.8946 5.39464 16 5.649 16 5.91421V18C16 19.1046 15.1046 20 14 20H2ZM9.25 1.5C9.38807 1.5 9.5 1.61193 9.5 1.75V5.5C9.5 6.05228 9.94772 6.5 10.5 6.5H14.25C14.3881 6.5 14.5 6.61193 14.5 6.75V18C14.5 18.2761 14.2761 18.5 14 18.5H2C1.72386 18.5 1.5 18.2761 1.5 18V2C1.5 1.72386 1.72386 1.5 2 1.5H9.25Z" fill="var(--fill-0, #363738)"/>
</g>
</svg>
