<svg preserveAspectRatio="none" width="100%" height="100%" overflow="visible" style="display: block;" viewBox="0 0 16 20" fill="none" xmlns="http://www.w3.org/2000/svg">
<path id="Vector" fill-rule="evenodd" clip-rule="evenodd" d="M6.4 0C4.15979 0 3.03969 0 2.18404 0.435974C1.43139 0.819467 0.819467 1.43139 0.435974 2.18404C0 3.03969 0 4.15979 0 6.4V13.6C0 15.8402 0 16.9603 0.435974 17.816C0.819467 18.5686 1.43139 19.1805 2.18404 19.564C3.03969 20 4.15979 20 6.4 20H9.6C11.8402 20 12.9603 20 13.816 19.564C14.5686 19.1805 15.1805 18.5686 15.564 17.816C16 16.9603 16 15.8402 16 13.6V7.48811C16 6.75429 16 6.38738 15.9171 6.0421C15.8436 5.73597 15.7224 5.44333 15.5579 5.1749C15.3723 4.87214 15.1129 4.61271 14.594 4.09384L11.9056 1.40574C11.3868 0.886936 11.1273 0.627536 10.8246 0.442031C10.5562 0.277562 10.2636 0.156363 9.95749 0.0828809C9.61225 0 9.24538 0 8.51166 0H6.4ZM13.7014 6.49997C13.9805 6.49998 14.1201 6.49999 14.227 6.55449C14.3211 6.60243 14.3976 6.67891 14.4455 6.773C14.5 6.87995 14.5 7.01997 14.5 7.3V14.5C14.5 15.9001 14.5 16.6002 14.2275 17.135C13.9878 17.6054 13.6054 17.9878 13.135 18.2275C12.6002 18.5 11.9001 18.5 10.5 18.5H5.5C4.09987 18.5 3.3998 18.5 2.86502 18.2275C2.39462 17.9878 2.01217 17.6054 1.77248 17.135C1.5 16.6002 1.5 15.9001 1.5 14.5V5.5C1.5 4.09987 1.5 3.3998 1.77248 2.86502C2.01217 2.39462 2.39462 2.01217 2.86502 1.77248C3.3998 1.5 4.09987 1.5 5.5 1.5H8.7C8.98003 1.5 9.12004 1.5 9.227 1.5545C9.32108 1.60243 9.39757 1.67892 9.4455 1.773C9.5 1.87996 9.5 2.01997 9.5 2.3V3.29993C9.5 4.41998 9.5 4.98001 9.71797 5.40782C9.90971 5.78413 10.2157 6.09009 10.592 6.28185C11.0198 6.49984 11.5799 6.49987 12.7002 6.49993C13.0648 6.49994 13.4095 6.49996 13.7014 6.49997Z" fill="var(--fill-0, #363738)"/>
</svg>
